G04 #@! TF.FileFunction,Copper,L1,Top,Signal*
%FSLAX46Y46*%
G04 Gerber Fmt 4.6, Leading zero omitted, Abs format (unit mm)*
G04 Created by KiCad (PCBNEW 4.0.2-stable) date 2016 July 15, Friday 17:30:48*
%MOMM*%
G01*
G04 APERTURE LIST*
%ADD10C,0.100000*%
%ADD11R,1.600000X1.000000*%
%ADD12R,0.900000X1.700000*%
%ADD13R,1.700000X0.900000*%
%ADD14R,1.143000X0.508000*%
%ADD15C,1.397000*%
%ADD16C,3.048000*%
%ADD17R,1.597660X1.800860*%
%ADD18C,0.889000*%
%ADD19C,0.250000*%
%ADD20C,0.254000*%
G04 APERTURE END LIST*
D10*
D11*
X170180000Y-72112000D03*
X170180000Y-69112000D03*
D12*
X182806000Y-77724000D03*
X179906000Y-77724000D03*
D13*
X157988000Y-81354000D03*
X157988000Y-84254000D03*
D14*
X173355000Y-73787000D03*
X173355000Y-75057000D03*
X173355000Y-76327000D03*
X173355000Y-77597000D03*
X167005000Y-77597000D03*
X167005000Y-76327000D03*
X167005000Y-75057000D03*
X167005000Y-73787000D03*
D15*
X181102000Y-68072000D03*
X183642000Y-68072000D03*
D16*
X180975000Y-72644000D03*
X159385000Y-72644000D03*
D17*
X162664140Y-85852000D03*
X165503860Y-85852000D03*
D18*
X165100000Y-72136000D03*
X169164000Y-85852000D03*
D19*
X173355000Y-76327000D02*
X175387000Y-76327000D01*
X176784000Y-77724000D02*
X179906000Y-77724000D01*
X175387000Y-76327000D02*
X176784000Y-77724000D01*
X170180000Y-75184000D02*
X170180000Y-76200000D01*
X170307000Y-76327000D02*
X173355000Y-76327000D01*
X170180000Y-76200000D02*
X170307000Y-76327000D01*
X170180000Y-72112000D02*
X170180000Y-75184000D01*
X170053000Y-75057000D02*
X167005000Y-75057000D01*
X170180000Y-75184000D02*
X170053000Y-75057000D01*
X165503860Y-85852000D02*
X169164000Y-85852000D01*
X170180000Y-69112000D02*
X168124000Y-69112000D01*
X165100000Y-72136000D02*
X166751000Y-73787000D01*
X168124000Y-69112000D02*
X165100000Y-72136000D01*
X167005000Y-73787000D02*
X166751000Y-73787000D01*
X157988000Y-84254000D02*
X157988000Y-86360000D01*
X158496000Y-85852000D02*
X162664140Y-85852000D01*
X157988000Y-86360000D02*
X158496000Y-85852000D01*
X180139000Y-75057000D02*
X182806000Y-77724000D01*
X173355000Y-75057000D02*
X180139000Y-75057000D01*
X182806000Y-77724000D02*
X182806000Y-75258000D01*
X183642000Y-74422000D02*
X183642000Y-68072000D01*
X182806000Y-75258000D02*
X183642000Y-74422000D01*
X157988000Y-81354000D02*
X157988000Y-77724000D01*
X159385000Y-76327000D02*
X167005000Y-76327000D01*
X157988000Y-77724000D02*
X159385000Y-76327000D01*
D20*
G36*
X185980000Y-88190000D02*
X154380000Y-88190000D01*
X154380000Y-83804000D01*
X156490560Y-83804000D01*
X156490560Y-84704000D01*
X156534838Y-84939317D01*
X156673910Y-85155441D01*
X156886110Y-85300431D01*
X157138000Y-85351440D01*
X157228000Y-85351440D01*
X157228000Y-86360000D01*
X157285852Y-86650839D01*
X157450599Y-86897401D01*
X157697161Y-87062148D01*
X157988000Y-87120000D01*
X158278839Y-87062148D01*
X158525401Y-86897401D01*
X158810802Y-86612000D01*
X161217870Y-86612000D01*
X161217870Y-86752430D01*
X161262148Y-86987747D01*
X161401220Y-87203871D01*
X161613420Y-87348861D01*
X161865310Y-87399870D01*
X163462970Y-87399870D01*
X163698287Y-87355592D01*
X163914411Y-87216520D01*
X164059401Y-87004320D01*
X164083030Y-86887634D01*
X164101868Y-86987747D01*
X164240940Y-87203871D01*
X164453140Y-87348861D01*
X164705030Y-87399870D01*
X166302690Y-87399870D01*
X166538007Y-87355592D01*
X166754131Y-87216520D01*
X166899121Y-87004320D01*
X166950130Y-86752430D01*
X166950130Y-86612000D01*
X168397362Y-86612000D01*
X168551714Y-86766622D01*
X168948332Y-86931313D01*
X169377784Y-86931687D01*
X169774689Y-86767689D01*
X170078622Y-86464286D01*
X170243313Y-86067668D01*
X170243687Y-85638216D01*
X170079689Y-85241311D01*
X169776286Y-84937378D01*
X169379668Y-84772687D01*
X168950216Y-84772313D01*
X168553311Y-84936311D01*
X168397350Y-85092000D01*
X166950130Y-85092000D01*
X166950130Y-84951570D01*
X166905852Y-84716253D01*
X166766780Y-84500129D01*
X166554580Y-84355139D01*
X166302690Y-84304130D01*
X164705030Y-84304130D01*
X164469713Y-84348408D01*
X164253589Y-84487480D01*
X164108599Y-84699680D01*
X164084970Y-84816366D01*
X164066132Y-84716253D01*
X163927060Y-84500129D01*
X163714860Y-84355139D01*
X163462970Y-84304130D01*
X161865310Y-84304130D01*
X161629993Y-84348408D01*
X161413869Y-84487480D01*
X161268879Y-84699680D01*
X161217870Y-84951570D01*
X161217870Y-85092000D01*
X159341431Y-85092000D01*
X159434431Y-84955890D01*
X159485440Y-84704000D01*
X159485440Y-83804000D01*
X159441162Y-83568683D01*
X159302090Y-83352559D01*
X159089890Y-83207569D01*
X158838000Y-83156560D01*
X157138000Y-83156560D01*
X156902683Y-83200838D01*
X156686559Y-83339910D01*
X156541569Y-83552110D01*
X156490560Y-83804000D01*
X154380000Y-83804000D01*
X154380000Y-80904000D01*
X156490560Y-80904000D01*
X156490560Y-81804000D01*
X156534838Y-82039317D01*
X156673910Y-82255441D01*
X156886110Y-82400431D01*
X157138000Y-82451440D01*
X158838000Y-82451440D01*
X159073317Y-82407162D01*
X159289441Y-82268090D01*
X159434431Y-82055890D01*
X159485440Y-81804000D01*
X159485440Y-80904000D01*
X159441162Y-80668683D01*
X159302090Y-80452559D01*
X159089890Y-80307569D01*
X158838000Y-80256560D01*
X158748000Y-80256560D01*
X158748000Y-78038802D01*
X158904052Y-77882750D01*
X165798500Y-77882750D01*
X165798500Y-77977309D01*
X165895173Y-78210698D01*
X166073801Y-78389327D01*
X166307190Y-78486000D01*
X166719250Y-78486000D01*
X166878000Y-78327250D01*
X166878000Y-77724000D01*
X167132000Y-77724000D01*
X167132000Y-78327250D01*
X167290750Y-78486000D01*
X167702810Y-78486000D01*
X167936199Y-78389327D01*
X168114827Y-78210698D01*
X168211500Y-77977309D01*
X168211500Y-77882750D01*
X168052750Y-77724000D01*
X167132000Y-77724000D01*
X166878000Y-77724000D01*
X165957250Y-77724000D01*
X165798500Y-77882750D01*
X158904052Y-77882750D01*
X159699802Y-77087000D01*
X165852220Y-77087000D01*
X165798500Y-77216691D01*
X165798500Y-77311250D01*
X165957250Y-77470000D01*
X166878000Y-77470000D01*
X166878000Y-77450000D01*
X167132000Y-77450000D01*
X167132000Y-77470000D01*
X168052750Y-77470000D01*
X168211500Y-77311250D01*
X168211500Y-77216691D01*
X168114827Y-76983302D01*
X168088291Y-76956765D01*
X168172931Y-76832890D01*
X168223940Y-76581000D01*
X168223940Y-76073000D01*
X168179662Y-75837683D01*
X168166353Y-75817000D01*
X169420000Y-75817000D01*
X169420000Y-76200000D01*
X169477852Y-76490839D01*
X169642599Y-76737401D01*
X169769599Y-76864401D01*
X170016161Y-77029148D01*
X170307000Y-77087000D01*
X172189877Y-77087000D01*
X172187069Y-77091110D01*
X172136060Y-77343000D01*
X172136060Y-77851000D01*
X172180338Y-78086317D01*
X172319410Y-78302441D01*
X172531610Y-78447431D01*
X172783500Y-78498440D01*
X173926500Y-78498440D01*
X174161817Y-78454162D01*
X174377941Y-78315090D01*
X174522931Y-78102890D01*
X174573940Y-77851000D01*
X174573940Y-77343000D01*
X174529662Y-77107683D01*
X174516353Y-77087000D01*
X175072198Y-77087000D01*
X176246599Y-78261401D01*
X176493160Y-78426148D01*
X176784000Y-78484000D01*
X178808560Y-78484000D01*
X178808560Y-78574000D01*
X178852838Y-78809317D01*
X178991910Y-79025441D01*
X179204110Y-79170431D01*
X179456000Y-79221440D01*
X180356000Y-79221440D01*
X180591317Y-79177162D01*
X180807441Y-79038090D01*
X180952431Y-78825890D01*
X181003440Y-78574000D01*
X181003440Y-76996242D01*
X181708560Y-77701362D01*
X181708560Y-78574000D01*
X181752838Y-78809317D01*
X181891910Y-79025441D01*
X182104110Y-79170431D01*
X182356000Y-79221440D01*
X183256000Y-79221440D01*
X183491317Y-79177162D01*
X183707441Y-79038090D01*
X183852431Y-78825890D01*
X183903440Y-78574000D01*
X183903440Y-76874000D01*
X183859162Y-76638683D01*
X183720090Y-76422559D01*
X183566000Y-76317274D01*
X183566000Y-75572802D01*
X184179401Y-74959401D01*
X184344148Y-74712839D01*
X184402000Y-74422000D01*
X184402000Y-69197536D01*
X184771827Y-68828353D01*
X184975268Y-68338413D01*
X184975731Y-67807914D01*
X184773146Y-67317620D01*
X184398353Y-66942173D01*
X183908413Y-66738732D01*
X183377914Y-66738269D01*
X182887620Y-66940854D01*
X182512173Y-67315647D01*
X182378686Y-67637118D01*
X182271800Y-67379071D01*
X182036188Y-67317417D01*
X181281605Y-68072000D01*
X182036188Y-68826583D01*
X182271800Y-68764929D01*
X182370083Y-68485688D01*
X182510854Y-68826380D01*
X182882000Y-69198174D01*
X182882000Y-71586421D01*
X182827568Y-71455011D01*
X182506307Y-71292298D01*
X181154605Y-72644000D01*
X182506307Y-73995702D01*
X182827568Y-73832989D01*
X182882000Y-73694398D01*
X182882000Y-74107198D01*
X182268599Y-74720599D01*
X182103852Y-74967161D01*
X182046000Y-75258000D01*
X182046000Y-75889198D01*
X180960437Y-74803635D01*
X181444221Y-74794706D01*
X182163989Y-74496568D01*
X182326702Y-74175307D01*
X180975000Y-72823605D01*
X179623298Y-74175307D01*
X179684933Y-74297000D01*
X174507780Y-74297000D01*
X174561500Y-74167309D01*
X174561500Y-74072750D01*
X174402750Y-73914000D01*
X173482000Y-73914000D01*
X173482000Y-73934000D01*
X173228000Y-73934000D01*
X173228000Y-73914000D01*
X172307250Y-73914000D01*
X172148500Y-74072750D01*
X172148500Y-74167309D01*
X172245173Y-74400698D01*
X172271709Y-74427235D01*
X172187069Y-74551110D01*
X172136060Y-74803000D01*
X172136060Y-75311000D01*
X172180338Y-75546317D01*
X172193647Y-75567000D01*
X170940000Y-75567000D01*
X170940000Y-73406691D01*
X172148500Y-73406691D01*
X172148500Y-73501250D01*
X172307250Y-73660000D01*
X173228000Y-73660000D01*
X173228000Y-73056750D01*
X173482000Y-73056750D01*
X173482000Y-73660000D01*
X174402750Y-73660000D01*
X174561500Y-73501250D01*
X174561500Y-73406691D01*
X174464827Y-73173302D01*
X174286199Y-72994673D01*
X174052810Y-72898000D01*
X173640750Y-72898000D01*
X173482000Y-73056750D01*
X173228000Y-73056750D01*
X173069250Y-72898000D01*
X172657190Y-72898000D01*
X172423801Y-72994673D01*
X172245173Y-73173302D01*
X172148500Y-73406691D01*
X170940000Y-73406691D01*
X170940000Y-73259440D01*
X170980000Y-73259440D01*
X171215317Y-73215162D01*
X171431441Y-73076090D01*
X171576431Y-72863890D01*
X171627440Y-72612000D01*
X171627440Y-72254464D01*
X178808444Y-72254464D01*
X178824294Y-73113221D01*
X179122432Y-73832989D01*
X179443693Y-73995702D01*
X180795395Y-72644000D01*
X179443693Y-71292298D01*
X179122432Y-71455011D01*
X178808444Y-72254464D01*
X171627440Y-72254464D01*
X171627440Y-71612000D01*
X171583162Y-71376683D01*
X171444090Y-71160559D01*
X171374036Y-71112693D01*
X179623298Y-71112693D01*
X180975000Y-72464395D01*
X182326702Y-71112693D01*
X182163989Y-70791432D01*
X181364536Y-70477444D01*
X180505779Y-70493294D01*
X179786011Y-70791432D01*
X179623298Y-71112693D01*
X171374036Y-71112693D01*
X171231890Y-71015569D01*
X170980000Y-70964560D01*
X169380000Y-70964560D01*
X169144683Y-71008838D01*
X168928559Y-71147910D01*
X168783569Y-71360110D01*
X168732560Y-71612000D01*
X168732560Y-72612000D01*
X168776838Y-72847317D01*
X168915910Y-73063441D01*
X169128110Y-73208431D01*
X169380000Y-73259440D01*
X169420000Y-73259440D01*
X169420000Y-74297000D01*
X168170123Y-74297000D01*
X168172931Y-74292890D01*
X168223940Y-74041000D01*
X168223940Y-73533000D01*
X168179662Y-73297683D01*
X168040590Y-73081559D01*
X167828390Y-72936569D01*
X167576500Y-72885560D01*
X166924362Y-72885560D01*
X166179497Y-72140695D01*
X166179505Y-72131297D01*
X168438802Y-69872000D01*
X168792721Y-69872000D01*
X168915910Y-70063441D01*
X169128110Y-70208431D01*
X169380000Y-70259440D01*
X170980000Y-70259440D01*
X171215317Y-70215162D01*
X171431441Y-70076090D01*
X171576431Y-69863890D01*
X171627440Y-69612000D01*
X171627440Y-69006188D01*
X180347417Y-69006188D01*
X180409071Y-69241800D01*
X180909480Y-69417927D01*
X181439199Y-69389148D01*
X181794929Y-69241800D01*
X181856583Y-69006188D01*
X181102000Y-68251605D01*
X180347417Y-69006188D01*
X171627440Y-69006188D01*
X171627440Y-68612000D01*
X171583162Y-68376683D01*
X171444090Y-68160559D01*
X171231890Y-68015569D01*
X170980000Y-67964560D01*
X169380000Y-67964560D01*
X169144683Y-68008838D01*
X168928559Y-68147910D01*
X168789110Y-68352000D01*
X168124000Y-68352000D01*
X167833161Y-68409852D01*
X167586599Y-68574599D01*
X165104695Y-71056503D01*
X164886216Y-71056313D01*
X164489311Y-71220311D01*
X164185378Y-71523714D01*
X164020687Y-71920332D01*
X164020313Y-72349784D01*
X164184311Y-72746689D01*
X164487714Y-73050622D01*
X164884332Y-73215313D01*
X165104703Y-73215505D01*
X165786060Y-73896862D01*
X165786060Y-74041000D01*
X165830338Y-74276317D01*
X165924666Y-74422907D01*
X165837069Y-74551110D01*
X165786060Y-74803000D01*
X165786060Y-75311000D01*
X165830338Y-75546317D01*
X165843647Y-75567000D01*
X159385000Y-75567000D01*
X159094160Y-75624852D01*
X158847599Y-75789599D01*
X157450599Y-77186599D01*
X157285852Y-77433161D01*
X157228000Y-77724000D01*
X157228000Y-80256560D01*
X157138000Y-80256560D01*
X156902683Y-80300838D01*
X156686559Y-80439910D01*
X156541569Y-80652110D01*
X156490560Y-80904000D01*
X154380000Y-80904000D01*
X154380000Y-74175307D01*
X158033298Y-74175307D01*
X158196011Y-74496568D01*
X158995464Y-74810556D01*
X159854221Y-74794706D01*
X160573989Y-74496568D01*
X160736702Y-74175307D01*
X159385000Y-72823605D01*
X158033298Y-74175307D01*
X154380000Y-74175307D01*
X154380000Y-72254464D01*
X157218444Y-72254464D01*
X157234294Y-73113221D01*
X157532432Y-73832989D01*
X157853693Y-73995702D01*
X159205395Y-72644000D01*
X159564605Y-72644000D01*
X160916307Y-73995702D01*
X161237568Y-73832989D01*
X161551556Y-73033536D01*
X161535706Y-72174779D01*
X161237568Y-71455011D01*
X160916307Y-71292298D01*
X159564605Y-72644000D01*
X159205395Y-72644000D01*
X157853693Y-71292298D01*
X157532432Y-71455011D01*
X157218444Y-72254464D01*
X154380000Y-72254464D01*
X154380000Y-71112693D01*
X158033298Y-71112693D01*
X159385000Y-72464395D01*
X160736702Y-71112693D01*
X160573989Y-70791432D01*
X159774536Y-70477444D01*
X158915779Y-70493294D01*
X158196011Y-70791432D01*
X158033298Y-71112693D01*
X154380000Y-71112693D01*
X154380000Y-67879480D01*
X179756073Y-67879480D01*
X179784852Y-68409199D01*
X179932200Y-68764929D01*
X180167812Y-68826583D01*
X180922395Y-68072000D01*
X180167812Y-67317417D01*
X179932200Y-67379071D01*
X179756073Y-67879480D01*
X154380000Y-67879480D01*
X154380000Y-67137812D01*
X180347417Y-67137812D01*
X181102000Y-67892395D01*
X181856583Y-67137812D01*
X181794929Y-66902200D01*
X181294520Y-66726073D01*
X180764801Y-66754852D01*
X180409071Y-66902200D01*
X180347417Y-67137812D01*
X154380000Y-67137812D01*
X154380000Y-65480000D01*
X185980000Y-65480000D01*
X185980000Y-88190000D01*
X185980000Y-88190000D01*
G37*
X185980000Y-88190000D02*
X154380000Y-88190000D01*
X154380000Y-83804000D01*
X156490560Y-83804000D01*
X156490560Y-84704000D01*
X156534838Y-84939317D01*
X156673910Y-85155441D01*
X156886110Y-85300431D01*
X157138000Y-85351440D01*
X157228000Y-85351440D01*
X157228000Y-86360000D01*
X157285852Y-86650839D01*
X157450599Y-86897401D01*
X157697161Y-87062148D01*
X157988000Y-87120000D01*
X158278839Y-87062148D01*
X158525401Y-86897401D01*
X158810802Y-86612000D01*
X161217870Y-86612000D01*
X161217870Y-86752430D01*
X161262148Y-86987747D01*
X161401220Y-87203871D01*
X161613420Y-87348861D01*
X161865310Y-87399870D01*
X163462970Y-87399870D01*
X163698287Y-87355592D01*
X163914411Y-87216520D01*
X164059401Y-87004320D01*
X164083030Y-86887634D01*
X164101868Y-86987747D01*
X164240940Y-87203871D01*
X164453140Y-87348861D01*
X164705030Y-87399870D01*
X166302690Y-87399870D01*
X166538007Y-87355592D01*
X166754131Y-87216520D01*
X166899121Y-87004320D01*
X166950130Y-86752430D01*
X166950130Y-86612000D01*
X168397362Y-86612000D01*
X168551714Y-86766622D01*
X168948332Y-86931313D01*
X169377784Y-86931687D01*
X169774689Y-86767689D01*
X170078622Y-86464286D01*
X170243313Y-86067668D01*
X170243687Y-85638216D01*
X170079689Y-85241311D01*
X169776286Y-84937378D01*
X169379668Y-84772687D01*
X168950216Y-84772313D01*
X168553311Y-84936311D01*
X168397350Y-85092000D01*
X166950130Y-85092000D01*
X166950130Y-84951570D01*
X166905852Y-84716253D01*
X166766780Y-84500129D01*
X166554580Y-84355139D01*
X166302690Y-84304130D01*
X164705030Y-84304130D01*
X164469713Y-84348408D01*
X164253589Y-84487480D01*
X164108599Y-84699680D01*
X164084970Y-84816366D01*
X164066132Y-84716253D01*
X163927060Y-84500129D01*
X163714860Y-84355139D01*
X163462970Y-84304130D01*
X161865310Y-84304130D01*
X161629993Y-84348408D01*
X161413869Y-84487480D01*
X161268879Y-84699680D01*
X161217870Y-84951570D01*
X161217870Y-85092000D01*
X159341431Y-85092000D01*
X159434431Y-84955890D01*
X159485440Y-84704000D01*
X159485440Y-83804000D01*
X159441162Y-83568683D01*
X159302090Y-83352559D01*
X159089890Y-83207569D01*
X158838000Y-83156560D01*
X157138000Y-83156560D01*
X156902683Y-83200838D01*
X156686559Y-83339910D01*
X156541569Y-83552110D01*
X156490560Y-83804000D01*
X154380000Y-83804000D01*
X154380000Y-80904000D01*
X156490560Y-80904000D01*
X156490560Y-81804000D01*
X156534838Y-82039317D01*
X156673910Y-82255441D01*
X156886110Y-82400431D01*
X157138000Y-82451440D01*
X158838000Y-82451440D01*
X159073317Y-82407162D01*
X159289441Y-82268090D01*
X159434431Y-82055890D01*
X159485440Y-81804000D01*
X159485440Y-80904000D01*
X159441162Y-80668683D01*
X159302090Y-80452559D01*
X159089890Y-80307569D01*
X158838000Y-80256560D01*
X158748000Y-80256560D01*
X158748000Y-78038802D01*
X158904052Y-77882750D01*
X165798500Y-77882750D01*
X165798500Y-77977309D01*
X165895173Y-78210698D01*
X166073801Y-78389327D01*
X166307190Y-78486000D01*
X166719250Y-78486000D01*
X166878000Y-78327250D01*
X166878000Y-77724000D01*
X167132000Y-77724000D01*
X167132000Y-78327250D01*
X167290750Y-78486000D01*
X167702810Y-78486000D01*
X167936199Y-78389327D01*
X168114827Y-78210698D01*
X168211500Y-77977309D01*
X168211500Y-77882750D01*
X168052750Y-77724000D01*
X167132000Y-77724000D01*
X166878000Y-77724000D01*
X165957250Y-77724000D01*
X165798500Y-77882750D01*
X158904052Y-77882750D01*
X159699802Y-77087000D01*
X165852220Y-77087000D01*
X165798500Y-77216691D01*
X165798500Y-77311250D01*
X165957250Y-77470000D01*
X166878000Y-77470000D01*
X166878000Y-77450000D01*
X167132000Y-77450000D01*
X167132000Y-77470000D01*
X168052750Y-77470000D01*
X168211500Y-77311250D01*
X168211500Y-77216691D01*
X168114827Y-76983302D01*
X168088291Y-76956765D01*
X168172931Y-76832890D01*
X168223940Y-76581000D01*
X168223940Y-76073000D01*
X168179662Y-75837683D01*
X168166353Y-75817000D01*
X169420000Y-75817000D01*
X169420000Y-76200000D01*
X169477852Y-76490839D01*
X169642599Y-76737401D01*
X169769599Y-76864401D01*
X170016161Y-77029148D01*
X170307000Y-77087000D01*
X172189877Y-77087000D01*
X172187069Y-77091110D01*
X172136060Y-77343000D01*
X172136060Y-77851000D01*
X172180338Y-78086317D01*
X172319410Y-78302441D01*
X172531610Y-78447431D01*
X172783500Y-78498440D01*
X173926500Y-78498440D01*
X174161817Y-78454162D01*
X174377941Y-78315090D01*
X174522931Y-78102890D01*
X174573940Y-77851000D01*
X174573940Y-77343000D01*
X174529662Y-77107683D01*
X174516353Y-77087000D01*
X175072198Y-77087000D01*
X176246599Y-78261401D01*
X176493160Y-78426148D01*
X176784000Y-78484000D01*
X178808560Y-78484000D01*
X178808560Y-78574000D01*
X178852838Y-78809317D01*
X178991910Y-79025441D01*
X179204110Y-79170431D01*
X179456000Y-79221440D01*
X180356000Y-79221440D01*
X180591317Y-79177162D01*
X180807441Y-79038090D01*
X180952431Y-78825890D01*
X181003440Y-78574000D01*
X181003440Y-76996242D01*
X181708560Y-77701362D01*
X181708560Y-78574000D01*
X181752838Y-78809317D01*
X181891910Y-79025441D01*
X182104110Y-79170431D01*
X182356000Y-79221440D01*
X183256000Y-79221440D01*
X183491317Y-79177162D01*
X183707441Y-79038090D01*
X183852431Y-78825890D01*
X183903440Y-78574000D01*
X183903440Y-76874000D01*
X183859162Y-76638683D01*
X183720090Y-76422559D01*
X183566000Y-76317274D01*
X183566000Y-75572802D01*
X184179401Y-74959401D01*
X184344148Y-74712839D01*
X184402000Y-74422000D01*
X184402000Y-69197536D01*
X184771827Y-68828353D01*
X184975268Y-68338413D01*
X184975731Y-67807914D01*
X184773146Y-67317620D01*
X184398353Y-66942173D01*
X183908413Y-66738732D01*
X183377914Y-66738269D01*
X182887620Y-66940854D01*
X182512173Y-67315647D01*
X182378686Y-67637118D01*
X182271800Y-67379071D01*
X182036188Y-67317417D01*
X181281605Y-68072000D01*
X182036188Y-68826583D01*
X182271800Y-68764929D01*
X182370083Y-68485688D01*
X182510854Y-68826380D01*
X182882000Y-69198174D01*
X182882000Y-71586421D01*
X182827568Y-71455011D01*
X182506307Y-71292298D01*
X181154605Y-72644000D01*
X182506307Y-73995702D01*
X182827568Y-73832989D01*
X182882000Y-73694398D01*
X182882000Y-74107198D01*
X182268599Y-74720599D01*
X182103852Y-74967161D01*
X182046000Y-75258000D01*
X182046000Y-75889198D01*
X180960437Y-74803635D01*
X181444221Y-74794706D01*
X182163989Y-74496568D01*
X182326702Y-74175307D01*
X180975000Y-72823605D01*
X179623298Y-74175307D01*
X179684933Y-74297000D01*
X174507780Y-74297000D01*
X174561500Y-74167309D01*
X174561500Y-74072750D01*
X174402750Y-73914000D01*
X173482000Y-73914000D01*
X173482000Y-73934000D01*
X173228000Y-73934000D01*
X173228000Y-73914000D01*
X172307250Y-73914000D01*
X172148500Y-74072750D01*
X172148500Y-74167309D01*
X172245173Y-74400698D01*
X172271709Y-74427235D01*
X172187069Y-74551110D01*
X172136060Y-74803000D01*
X172136060Y-75311000D01*
X172180338Y-75546317D01*
X172193647Y-75567000D01*
X170940000Y-75567000D01*
X170940000Y-73406691D01*
X172148500Y-73406691D01*
X172148500Y-73501250D01*
X172307250Y-73660000D01*
X173228000Y-73660000D01*
X173228000Y-73056750D01*
X173482000Y-73056750D01*
X173482000Y-73660000D01*
X174402750Y-73660000D01*
X174561500Y-73501250D01*
X174561500Y-73406691D01*
X174464827Y-73173302D01*
X174286199Y-72994673D01*
X174052810Y-72898000D01*
X173640750Y-72898000D01*
X173482000Y-73056750D01*
X173228000Y-73056750D01*
X173069250Y-72898000D01*
X172657190Y-72898000D01*
X172423801Y-72994673D01*
X172245173Y-73173302D01*
X172148500Y-73406691D01*
X170940000Y-73406691D01*
X170940000Y-73259440D01*
X170980000Y-73259440D01*
X171215317Y-73215162D01*
X171431441Y-73076090D01*
X171576431Y-72863890D01*
X171627440Y-72612000D01*
X171627440Y-72254464D01*
X178808444Y-72254464D01*
X178824294Y-73113221D01*
X179122432Y-73832989D01*
X179443693Y-73995702D01*
X180795395Y-72644000D01*
X179443693Y-71292298D01*
X179122432Y-71455011D01*
X178808444Y-72254464D01*
X171627440Y-72254464D01*
X171627440Y-71612000D01*
X171583162Y-71376683D01*
X171444090Y-71160559D01*
X171374036Y-71112693D01*
X179623298Y-71112693D01*
X180975000Y-72464395D01*
X182326702Y-71112693D01*
X182163989Y-70791432D01*
X181364536Y-70477444D01*
X180505779Y-70493294D01*
X179786011Y-70791432D01*
X179623298Y-71112693D01*
X171374036Y-71112693D01*
X171231890Y-71015569D01*
X170980000Y-70964560D01*
X169380000Y-70964560D01*
X169144683Y-71008838D01*
X168928559Y-71147910D01*
X168783569Y-71360110D01*
X168732560Y-71612000D01*
X168732560Y-72612000D01*
X168776838Y-72847317D01*
X168915910Y-73063441D01*
X169128110Y-73208431D01*
X169380000Y-73259440D01*
X169420000Y-73259440D01*
X169420000Y-74297000D01*
X168170123Y-74297000D01*
X168172931Y-74292890D01*
X168223940Y-74041000D01*
X168223940Y-73533000D01*
X168179662Y-73297683D01*
X168040590Y-73081559D01*
X167828390Y-72936569D01*
X167576500Y-72885560D01*
X166924362Y-72885560D01*
X166179497Y-72140695D01*
X166179505Y-72131297D01*
X168438802Y-69872000D01*
X168792721Y-69872000D01*
X168915910Y-70063441D01*
X169128110Y-70208431D01*
X169380000Y-70259440D01*
X170980000Y-70259440D01*
X171215317Y-70215162D01*
X171431441Y-70076090D01*
X171576431Y-69863890D01*
X171627440Y-69612000D01*
X171627440Y-69006188D01*
X180347417Y-69006188D01*
X180409071Y-69241800D01*
X180909480Y-69417927D01*
X181439199Y-69389148D01*
X181794929Y-69241800D01*
X181856583Y-69006188D01*
X181102000Y-68251605D01*
X180347417Y-69006188D01*
X171627440Y-69006188D01*
X171627440Y-68612000D01*
X171583162Y-68376683D01*
X171444090Y-68160559D01*
X171231890Y-68015569D01*
X170980000Y-67964560D01*
X169380000Y-67964560D01*
X169144683Y-68008838D01*
X168928559Y-68147910D01*
X168789110Y-68352000D01*
X168124000Y-68352000D01*
X167833161Y-68409852D01*
X167586599Y-68574599D01*
X165104695Y-71056503D01*
X164886216Y-71056313D01*
X164489311Y-71220311D01*
X164185378Y-71523714D01*
X164020687Y-71920332D01*
X164020313Y-72349784D01*
X164184311Y-72746689D01*
X164487714Y-73050622D01*
X164884332Y-73215313D01*
X165104703Y-73215505D01*
X165786060Y-73896862D01*
X165786060Y-74041000D01*
X165830338Y-74276317D01*
X165924666Y-74422907D01*
X165837069Y-74551110D01*
X165786060Y-74803000D01*
X165786060Y-75311000D01*
X165830338Y-75546317D01*
X165843647Y-75567000D01*
X159385000Y-75567000D01*
X159094160Y-75624852D01*
X158847599Y-75789599D01*
X157450599Y-77186599D01*
X157285852Y-77433161D01*
X157228000Y-77724000D01*
X157228000Y-80256560D01*
X157138000Y-80256560D01*
X156902683Y-80300838D01*
X156686559Y-80439910D01*
X156541569Y-80652110D01*
X156490560Y-80904000D01*
X154380000Y-80904000D01*
X154380000Y-74175307D01*
X158033298Y-74175307D01*
X158196011Y-74496568D01*
X158995464Y-74810556D01*
X159854221Y-74794706D01*
X160573989Y-74496568D01*
X160736702Y-74175307D01*
X159385000Y-72823605D01*
X158033298Y-74175307D01*
X154380000Y-74175307D01*
X154380000Y-72254464D01*
X157218444Y-72254464D01*
X157234294Y-73113221D01*
X157532432Y-73832989D01*
X157853693Y-73995702D01*
X159205395Y-72644000D01*
X159564605Y-72644000D01*
X160916307Y-73995702D01*
X161237568Y-73832989D01*
X161551556Y-73033536D01*
X161535706Y-72174779D01*
X161237568Y-71455011D01*
X160916307Y-71292298D01*
X159564605Y-72644000D01*
X159205395Y-72644000D01*
X157853693Y-71292298D01*
X157532432Y-71455011D01*
X157218444Y-72254464D01*
X154380000Y-72254464D01*
X154380000Y-71112693D01*
X158033298Y-71112693D01*
X159385000Y-72464395D01*
X160736702Y-71112693D01*
X160573989Y-70791432D01*
X159774536Y-70477444D01*
X158915779Y-70493294D01*
X158196011Y-70791432D01*
X158033298Y-71112693D01*
X154380000Y-71112693D01*
X154380000Y-67879480D01*
X179756073Y-67879480D01*
X179784852Y-68409199D01*
X179932200Y-68764929D01*
X180167812Y-68826583D01*
X180922395Y-68072000D01*
X180167812Y-67317417D01*
X179932200Y-67379071D01*
X179756073Y-67879480D01*
X154380000Y-67879480D01*
X154380000Y-67137812D01*
X180347417Y-67137812D01*
X181102000Y-67892395D01*
X181856583Y-67137812D01*
X181794929Y-66902200D01*
X181294520Y-66726073D01*
X180764801Y-66754852D01*
X180409071Y-66902200D01*
X180347417Y-67137812D01*
X154380000Y-67137812D01*
X154380000Y-65480000D01*
X185980000Y-65480000D01*
X185980000Y-88190000D01*
M02*
