G04 #@! TF.FileFunction,Copper,L2,Bot,Signal*
%FSLAX46Y46*%
G04 Gerber Fmt 4.6, Leading zero omitted, Abs format (unit mm)*
G04 Created by KiCad (PCBNEW 4.0.2-stable) date 2016 July 15, Friday 17:30:48*
%MOMM*%
G01*
G04 APERTURE LIST*
%ADD10C,0.100000*%
%ADD11C,1.397000*%
%ADD12R,4.064000X4.064000*%
%ADD13C,3.048000*%
%ADD14C,0.889000*%
%ADD15C,0.254000*%
G04 APERTURE END LIST*
D10*
D11*
X181102000Y-68072000D03*
X183642000Y-68072000D03*
D12*
X170180000Y-72644000D03*
D13*
X180975000Y-72644000D03*
X159385000Y-72644000D03*
D14*
X165100000Y-72136000D03*
X169164000Y-85852000D03*
D15*
G36*
X185980000Y-88190000D02*
X154380000Y-88190000D01*
X154380000Y-73071567D01*
X157225626Y-73071567D01*
X157553622Y-73865377D01*
X158160428Y-74473244D01*
X158953664Y-74802624D01*
X159812567Y-74803374D01*
X160606377Y-74475378D01*
X161214244Y-73868572D01*
X161543624Y-73075336D01*
X161543751Y-72929750D01*
X167513000Y-72929750D01*
X167513000Y-74802310D01*
X167609673Y-75035699D01*
X167788302Y-75214327D01*
X168021691Y-75311000D01*
X169894250Y-75311000D01*
X170053000Y-75152250D01*
X170053000Y-72771000D01*
X170307000Y-72771000D01*
X170307000Y-75152250D01*
X170465750Y-75311000D01*
X172338309Y-75311000D01*
X172571698Y-75214327D01*
X172750327Y-75035699D01*
X172847000Y-74802310D01*
X172847000Y-73071567D01*
X178815626Y-73071567D01*
X179143622Y-73865377D01*
X179750428Y-74473244D01*
X180543664Y-74802624D01*
X181402567Y-74803374D01*
X182196377Y-74475378D01*
X182804244Y-73868572D01*
X183133624Y-73075336D01*
X183134374Y-72216433D01*
X182806378Y-71422623D01*
X182199572Y-70814756D01*
X181406336Y-70485376D01*
X180547433Y-70484626D01*
X179753623Y-70812622D01*
X179145756Y-71419428D01*
X178816376Y-72212664D01*
X178815626Y-73071567D01*
X172847000Y-73071567D01*
X172847000Y-72929750D01*
X172688250Y-72771000D01*
X170307000Y-72771000D01*
X170053000Y-72771000D01*
X167671750Y-72771000D01*
X167513000Y-72929750D01*
X161543751Y-72929750D01*
X161544374Y-72216433D01*
X161216378Y-71422623D01*
X160609572Y-70814756D01*
X159817093Y-70485690D01*
X167513000Y-70485690D01*
X167513000Y-72358250D01*
X167671750Y-72517000D01*
X170053000Y-72517000D01*
X170053000Y-70135750D01*
X170307000Y-70135750D01*
X170307000Y-72517000D01*
X172688250Y-72517000D01*
X172847000Y-72358250D01*
X172847000Y-70485690D01*
X172750327Y-70252301D01*
X172571698Y-70073673D01*
X172338309Y-69977000D01*
X170465750Y-69977000D01*
X170307000Y-70135750D01*
X170053000Y-70135750D01*
X169894250Y-69977000D01*
X168021691Y-69977000D01*
X167788302Y-70073673D01*
X167609673Y-70252301D01*
X167513000Y-70485690D01*
X159817093Y-70485690D01*
X159816336Y-70485376D01*
X158957433Y-70484626D01*
X158163623Y-70812622D01*
X157555756Y-71419428D01*
X157226376Y-72212664D01*
X157225626Y-73071567D01*
X154380000Y-73071567D01*
X154380000Y-68336086D01*
X179768269Y-68336086D01*
X179970854Y-68826380D01*
X180345647Y-69201827D01*
X180835587Y-69405268D01*
X181366086Y-69405731D01*
X181856380Y-69203146D01*
X182231827Y-68828353D01*
X182372094Y-68490554D01*
X182510854Y-68826380D01*
X182885647Y-69201827D01*
X183375587Y-69405268D01*
X183906086Y-69405731D01*
X184396380Y-69203146D01*
X184771827Y-68828353D01*
X184975268Y-68338413D01*
X184975731Y-67807914D01*
X184773146Y-67317620D01*
X184398353Y-66942173D01*
X183908413Y-66738732D01*
X183377914Y-66738269D01*
X182887620Y-66940854D01*
X182512173Y-67315647D01*
X182371906Y-67653446D01*
X182233146Y-67317620D01*
X181858353Y-66942173D01*
X181368413Y-66738732D01*
X180837914Y-66738269D01*
X180347620Y-66940854D01*
X179972173Y-67315647D01*
X179768732Y-67805587D01*
X179768269Y-68336086D01*
X154380000Y-68336086D01*
X154380000Y-65659000D01*
X185980000Y-65659000D01*
X185980000Y-88190000D01*
X185980000Y-88190000D01*
G37*
X185980000Y-88190000D02*
X154380000Y-88190000D01*
X154380000Y-73071567D01*
X157225626Y-73071567D01*
X157553622Y-73865377D01*
X158160428Y-74473244D01*
X158953664Y-74802624D01*
X159812567Y-74803374D01*
X160606377Y-74475378D01*
X161214244Y-73868572D01*
X161543624Y-73075336D01*
X161543751Y-72929750D01*
X167513000Y-72929750D01*
X167513000Y-74802310D01*
X167609673Y-75035699D01*
X167788302Y-75214327D01*
X168021691Y-75311000D01*
X169894250Y-75311000D01*
X170053000Y-75152250D01*
X170053000Y-72771000D01*
X170307000Y-72771000D01*
X170307000Y-75152250D01*
X170465750Y-75311000D01*
X172338309Y-75311000D01*
X172571698Y-75214327D01*
X172750327Y-75035699D01*
X172847000Y-74802310D01*
X172847000Y-73071567D01*
X178815626Y-73071567D01*
X179143622Y-73865377D01*
X179750428Y-74473244D01*
X180543664Y-74802624D01*
X181402567Y-74803374D01*
X182196377Y-74475378D01*
X182804244Y-73868572D01*
X183133624Y-73075336D01*
X183134374Y-72216433D01*
X182806378Y-71422623D01*
X182199572Y-70814756D01*
X181406336Y-70485376D01*
X180547433Y-70484626D01*
X179753623Y-70812622D01*
X179145756Y-71419428D01*
X178816376Y-72212664D01*
X178815626Y-73071567D01*
X172847000Y-73071567D01*
X172847000Y-72929750D01*
X172688250Y-72771000D01*
X170307000Y-72771000D01*
X170053000Y-72771000D01*
X167671750Y-72771000D01*
X167513000Y-72929750D01*
X161543751Y-72929750D01*
X161544374Y-72216433D01*
X161216378Y-71422623D01*
X160609572Y-70814756D01*
X159817093Y-70485690D01*
X167513000Y-70485690D01*
X167513000Y-72358250D01*
X167671750Y-72517000D01*
X170053000Y-72517000D01*
X170053000Y-70135750D01*
X170307000Y-70135750D01*
X170307000Y-72517000D01*
X172688250Y-72517000D01*
X172847000Y-72358250D01*
X172847000Y-70485690D01*
X172750327Y-70252301D01*
X172571698Y-70073673D01*
X172338309Y-69977000D01*
X170465750Y-69977000D01*
X170307000Y-70135750D01*
X170053000Y-70135750D01*
X169894250Y-69977000D01*
X168021691Y-69977000D01*
X167788302Y-70073673D01*
X167609673Y-70252301D01*
X167513000Y-70485690D01*
X159817093Y-70485690D01*
X159816336Y-70485376D01*
X158957433Y-70484626D01*
X158163623Y-70812622D01*
X157555756Y-71419428D01*
X157226376Y-72212664D01*
X157225626Y-73071567D01*
X154380000Y-73071567D01*
X154380000Y-68336086D01*
X179768269Y-68336086D01*
X179970854Y-68826380D01*
X180345647Y-69201827D01*
X180835587Y-69405268D01*
X181366086Y-69405731D01*
X181856380Y-69203146D01*
X182231827Y-68828353D01*
X182372094Y-68490554D01*
X182510854Y-68826380D01*
X182885647Y-69201827D01*
X183375587Y-69405268D01*
X183906086Y-69405731D01*
X184396380Y-69203146D01*
X184771827Y-68828353D01*
X184975268Y-68338413D01*
X184975731Y-67807914D01*
X184773146Y-67317620D01*
X184398353Y-66942173D01*
X183908413Y-66738732D01*
X183377914Y-66738269D01*
X182887620Y-66940854D01*
X182512173Y-67315647D01*
X182371906Y-67653446D01*
X182233146Y-67317620D01*
X181858353Y-66942173D01*
X181368413Y-66738732D01*
X180837914Y-66738269D01*
X180347620Y-66940854D01*
X179972173Y-67315647D01*
X179768732Y-67805587D01*
X179768269Y-68336086D01*
X154380000Y-68336086D01*
X154380000Y-65659000D01*
X185980000Y-65659000D01*
X185980000Y-88190000D01*
M02*
